<svg width="16" height="16" viewBox="0 0 16 16" fill="none" xmlns="http://www.w3.org/2000/svg">
<path d="M14.5 8.11628C14.5 7.02744 14.0562 6.03478 13.3359 5.31452C13.0432 5.02166 13.0432 4.54684 13.3359 4.25397C13.6288 3.96112 14.1036 3.9612 14.3965 4.25397C15.3855 5.24299 16 6.61221 16 8.11628C15.9998 11.1289 13.5432 13.588 10.542 13.588H10.54L7.6543 13.5782L8.07031 13.9776C8.36901 14.2642 8.37913 14.7383 8.09277 15.0372C7.80607 15.3361 7.33118 15.3463 7.03223 15.0596L5.26465 13.3653C5.04337 13.1531 4.97411 12.8273 5.08887 12.543C5.20364 12.2588 5.4796 12.0725 5.78613 12.0733L10.542 12.087C12.7118 12.087 14.4998 10.3035 14.5 8.11628ZM0 7.88385C0.000134253 4.87112 2.45672 2.41217 5.45801 2.41217H5.45996L8.34375 2.41999L7.92969 2.02253C7.63073 1.73582 7.62052 1.26093 7.90723 0.961979C8.19395 0.663236 8.66889 0.653859 8.96777 0.940495L10.7354 2.63483C10.9565 2.84706 11.0259 3.17285 10.9111 3.4571C10.7964 3.74129 10.5203 3.92662 10.2139 3.92585L5.45703 3.91217C3.28751 3.91258 1.50013 5.69679 1.5 7.88385C1.5 8.97269 1.9438 9.96535 2.66406 10.6856C2.95662 10.9785 2.95672 11.4534 2.66406 11.7462C2.37126 12.039 1.89643 12.0388 1.60352 11.7462C0.614498 10.7571 0 9.38792 0 7.88385Z" fill="#9669FF"/>
</svg>
