<svg width="16" height="16" viewBox="0 0 16 16" fill="none" xmlns="http://www.w3.org/2000/svg">
<path d="M3 5.4502C3 4.0971 4.0971 3 5.4502 3H8C10.7614 3 13 5.23858 13 8C13 10.7614 10.7614 13 8 13H5.4502C4.0971 13 3 11.9029 3 10.5498V5.4502ZM4.5 10.5498C4.5 11.0745 4.92552 11.5 5.4502 11.5H8C9.933 11.5 11.5 9.933 11.5 8C11.5 6.067 9.933 4.5 8 4.5H5.4502C4.92552 4.5 4.5 4.92552 4.5 5.4502V10.5498Z" fill="white"/>
<path d="M11.2002 14.5V16H4.7998V14.5H11.2002ZM14.5 11.2002V4.7998C14.5 3.93534 14.4986 3.37708 14.4639 2.95215C14.4306 2.54542 14.3747 2.39365 14.3369 2.31934C14.1931 2.03709 13.9629 1.8069 13.6807 1.66309C13.6063 1.6253 13.4546 1.56936 13.0479 1.53613C12.6229 1.50144 12.0647 1.5 11.2002 1.5H4.7998C3.93534 1.5 3.37708 1.50144 2.95215 1.53613C2.54542 1.56936 2.39365 1.6253 2.31934 1.66309C2.03709 1.8069 1.8069 2.03709 1.66309 2.31934C1.6253 2.39365 1.56936 2.54542 1.53613 2.95215C1.50144 3.37708 1.5 3.93534 1.5 4.7998V11.2002C1.5 12.0647 1.50144 12.6229 1.53613 13.0479C1.56936 13.4546 1.6253 13.6063 1.66309 13.6807C1.8069 13.9629 2.03709 14.1931 2.31934 14.3369C2.39365 14.3747 2.54542 14.4306 2.95215 14.4639C3.37708 14.4986 3.93534 14.5 4.7998 14.5V16C3.11978 16 2.27941 15.9998 1.6377 15.6729C1.14381 15.4211 0.730572 15.0383 0.442383 14.5684L0.327148 14.3623C0.0819019 13.881 0.0202065 13.2877 0.00488281 12.3125L0 11.2002V4.7998C4.61195e-10 3.22468 6.84261e-05 2.38795 0.269531 1.76074L0.327148 1.6377C0.578875 1.14381 0.961662 0.730572 1.43164 0.442383L1.6377 0.327148C2.27941 0.000180662 3.11978 4.91912e-10 4.7998 0H11.2002L12.3125 0.00488281C13.2877 0.0202065 13.881 0.0819019 14.3623 0.327148C14.9265 0.614723 15.3853 1.07347 15.6729 1.6377C15.9998 2.27941 16 3.11978 16 4.7998V11.2002L15.9951 12.3125C15.9798 13.2877 15.9181 13.881 15.6729 14.3623L15.5576 14.5684C15.2694 15.0383 14.8562 15.4211 14.3623 15.6729L14.2393 15.7305C13.7793 15.9281 13.2066 15.9811 12.3125 15.9951L11.2002 16V14.5C12.0647 14.5 12.6229 14.4986 13.0479 14.4639C13.4546 14.4306 13.6063 14.3747 13.6807 14.3369C13.9629 14.1931 14.1931 13.9629 14.3369 13.6807C14.3747 13.6063 14.4306 13.4546 14.4639 13.0479C14.4986 12.6229 14.5 12.0647 14.5 11.2002Z" fill="white"/>
</svg>
