<svg width="16" height="16" viewBox="0 0 16 16" fill="none" xmlns="http://www.w3.org/2000/svg">
<path d="M11.5 10.125C11.5 9.36561 10.8844 8.75 10.125 8.75H4.5V10.25C4.5 10.7424 4.50197 11.0364 4.53027 11.2471C4.54326 11.3436 4.55842 11.3923 4.56738 11.4141C4.56944 11.4191 4.57126 11.4229 4.57227 11.4248L4.57324 11.4268L4.5752 11.4277C4.57712 11.4287 4.58095 11.4306 4.58594 11.4326C4.60772 11.4416 4.65637 11.4567 4.75293 11.4697C4.96364 11.498 5.25756 11.5 5.75 11.5H10.125C10.8844 11.5 11.5 10.8844 11.5 10.125ZM13 10.125C13 11.7128 11.7128 13 10.125 13H5.75C5.2998 13 4.88664 13.0019 4.55273 12.957C4.19726 12.9092 3.82171 12.7963 3.5127 12.4873C3.20368 12.1783 3.09076 11.8027 3.04297 11.4473C2.99808 11.1134 3 10.7002 3 10.25V5.75C3 5.2998 2.99808 4.88664 3.04297 4.55273C3.09076 4.19726 3.20368 3.82171 3.5127 3.5127C3.82171 3.20368 4.19726 3.09076 4.55273 3.04297C4.88664 2.99808 5.2998 3 5.75 3H10.125C11.7128 3 13 4.28718 13 5.875C13 6.71816 12.6348 7.47411 12.0566 8C12.6348 8.52589 13 9.28184 13 10.125ZM4.5 7.25H10.125C10.8844 7.25 11.5 6.63439 11.5 5.875C11.5 5.11561 10.8844 4.5 10.125 4.5H5.75C5.25756 4.5 4.96364 4.50197 4.75293 4.53027C4.65637 4.54326 4.60772 4.55842 4.58594 4.56738C4.58095 4.56944 4.57712 4.57126 4.5752 4.57227L4.57324 4.57324L4.57227 4.5752C4.57126 4.57712 4.56944 4.58095 4.56738 4.58594C4.55842 4.60772 4.54326 4.65637 4.53027 4.75293C4.50197 4.96364 4.5 5.25756 4.5 5.75V7.25Z" fill="white"/>
<path d="M11.2002 14.5V16H4.7998V14.5H11.2002ZM14.5 11.2002V4.7998C14.5 3.93534 14.4986 3.37708 14.4639 2.95215C14.4306 2.54542 14.3747 2.39365 14.3369 2.31934C14.1931 2.03709 13.9629 1.8069 13.6807 1.66309C13.6063 1.6253 13.4546 1.56936 13.0479 1.53613C12.6229 1.50144 12.0647 1.5 11.2002 1.5H4.7998C3.93534 1.5 3.37708 1.50144 2.95215 1.53613C2.54542 1.56936 2.39365 1.6253 2.31934 1.66309C2.03709 1.8069 1.8069 2.03709 1.66309 2.31934C1.6253 2.39365 1.56936 2.54542 1.53613 2.95215C1.50144 3.37708 1.5 3.93534 1.5 4.7998V11.2002C1.5 12.0647 1.50144 12.6229 1.53613 13.0479C1.56936 13.4546 1.6253 13.6063 1.66309 13.6807C1.8069 13.9629 2.03709 14.1931 2.31934 14.3369C2.39365 14.3747 2.54542 14.4306 2.95215 14.4639C3.37708 14.4986 3.93534 14.5 4.7998 14.5V16C3.11978 16 2.27941 15.9998 1.6377 15.6729C1.14381 15.4211 0.730572 15.0383 0.442383 14.5684L0.327148 14.3623C0.0819019 13.881 0.0202065 13.2877 0.00488281 12.3125L0 11.2002V4.7998C4.61195e-10 3.22468 6.84261e-05 2.38795 0.269531 1.76074L0.327148 1.6377C0.578875 1.14381 0.961662 0.730572 1.43164 0.442383L1.6377 0.327148C2.27941 0.000180662 3.11978 4.91912e-10 4.7998 0H11.2002L12.3125 0.00488281C13.2877 0.0202065 13.881 0.0819019 14.3623 0.327148C14.9265 0.614723 15.3853 1.07347 15.6729 1.6377C15.9998 2.27941 16 3.11978 16 4.7998V11.2002L15.9951 12.3125C15.9798 13.2877 15.9181 13.881 15.6729 14.3623L15.5576 14.5684C15.2694 15.0383 14.8562 15.4211 14.3623 15.6729L14.2393 15.7305C13.7793 15.9281 13.2066 15.9811 12.3125 15.9951L11.2002 16V14.5C12.0647 14.5 12.6229 14.4986 13.0479 14.4639C13.4546 14.4306 13.6063 14.3747 13.6807 14.3369C13.9629 14.1931 14.1931 13.9629 14.3369 13.6807C14.3747 13.6063 14.4306 13.4546 14.4639 13.0479C14.4986 12.6229 14.5 12.0647 14.5 11.2002Z" fill="white"/>
</svg>
