<svg width="16" height="16" viewBox="0 0 16 16" fill="none" xmlns="http://www.w3.org/2000/svg">
<path d="M2.50192 7.43945C2.72266 7.24331 3.0382 7.19446 3.30758 7.31543C3.57693 7.43645 3.74997 7.70471 3.74997 8C3.74997 10.3472 5.65277 12.25 7.99997 12.25C8.41418 12.25 8.74997 12.5858 8.74997 13C8.74997 13.4142 8.41418 13.75 7.99997 13.75C5.34117 13.75 3.10407 11.9453 2.44626 9.49414L1.24801 10.5605C0.938422 10.8356 0.464571 10.8076 0.189419 10.498C-0.0856557 10.1885 -0.0576307 9.7146 0.251919 9.43945L2.50192 7.43945ZM7.99997 2.25C10.6584 2.25 12.8945 4.05428 13.5527 6.50488L14.7519 5.43945C15.0615 5.16436 15.5354 5.1924 15.8105 5.50195C16.0856 5.81154 16.0576 6.28539 15.748 6.56055L13.498 8.56055C13.2773 8.75666 12.9617 8.80553 12.6923 8.68457C12.423 8.56354 12.25 8.29527 12.25 8C12.25 5.65279 10.3472 3.75 7.99997 3.75C7.58577 3.74998 7.24997 3.4142 7.24997 3C7.24997 2.5858 7.58577 2.25002 7.99997 2.25Z" fill="white"/>
</svg>
