<svg width="16" height="16" viewBox="0 0 16 16" fill="none" xmlns="http://www.w3.org/2000/svg">
<path d="M13.4697 1.46973C13.7626 1.17684 14.2374 1.17684 14.5303 1.46973C14.8232 1.76262 14.8232 2.23738 14.5303 2.53028L9.06055 8L14.5303 13.4697C14.8232 13.7626 14.8232 14.2374 14.5303 14.5303C14.2374 14.8232 13.7626 14.8232 13.4697 14.5303L8 9.06055L2.53028 14.5303C2.23738 14.8232 1.76262 14.8232 1.46973 14.5303C1.17684 14.2374 1.17684 13.7626 1.46973 13.4697C1.4868 13.4527 2.70493 12.2345 6.93946 8L1.46973 2.53028C1.17684 2.23738 1.17684 1.76262 1.46973 1.46973C1.76262 1.17684 2.23738 1.17684 2.53028 1.46973L8 6.93946L13.4697 1.46973Z" fill="#2BD8FF"/>
</svg>
