<svg width="16" height="16" viewBox="0 0 16 16" fill="none" xmlns="http://www.w3.org/2000/svg">
<path d="M7.22168 3.11594C7.72706 2.95048 8.27294 2.95048 8.77832 3.11594C9.51552 3.3575 9.96056 4.06287 10.3154 4.8093C10.6905 5.59828 11.0839 6.71051 11.582 8.11692L12.957 11.9997C13.0952 12.3901 12.8904 12.8185 12.5 12.9568C12.1097 13.0948 11.6813 12.8909 11.543 12.5007L10.3447 9.1179H5.65527L4.45703 12.5007C4.31868 12.8909 3.89028 13.0948 3.5 12.9568C3.10959 12.8185 2.90477 12.3901 3.04297 11.9997L4.41797 8.11692C4.91607 6.71051 5.30951 5.59828 5.68457 4.8093C6.03944 4.06287 6.48448 3.3575 7.22168 3.11594ZM8.31152 4.54172C8.10937 4.47554 7.89063 4.47554 7.68848 4.54172C7.6078 4.56836 7.39225 4.70997 7.03906 5.45286C6.78858 5.97973 6.52118 6.68776 6.1875 7.6179H9.8125C9.47882 6.68776 9.21142 5.97973 8.96094 5.45286C8.60775 4.70997 8.3922 4.56836 8.31152 4.54172Z" fill="white"/>
<path d="M11.2002 14.5V16H4.7998V14.5H11.2002ZM14.5 11.2002V4.7998C14.5 3.93534 14.4986 3.37708 14.4639 2.95215C14.4306 2.54542 14.3747 2.39365 14.3369 2.31934C14.1931 2.03709 13.9629 1.8069 13.6807 1.66309C13.6063 1.6253 13.4546 1.56936 13.0479 1.53613C12.6229 1.50144 12.0647 1.5 11.2002 1.5H4.7998C3.93534 1.5 3.37708 1.50144 2.95215 1.53613C2.54542 1.56936 2.39365 1.6253 2.31934 1.66309C2.03709 1.8069 1.8069 2.03709 1.66309 2.31934C1.6253 2.39365 1.56936 2.54542 1.53613 2.95215C1.50144 3.37708 1.5 3.93534 1.5 4.7998V11.2002C1.5 12.0647 1.50144 12.6229 1.53613 13.0479C1.56936 13.4546 1.6253 13.6063 1.66309 13.6807C1.8069 13.9629 2.03709 14.1931 2.31934 14.3369C2.39365 14.3747 2.54542 14.4306 2.95215 14.4639C3.37708 14.4986 3.93534 14.5 4.7998 14.5V16C3.11978 16 2.27941 15.9998 1.6377 15.6729C1.14381 15.4211 0.730572 15.0383 0.442383 14.5684L0.327148 14.3623C0.0819019 13.881 0.0202065 13.2877 0.00488281 12.3125L0 11.2002V4.7998C4.61195e-10 3.22468 6.84261e-05 2.38795 0.269531 1.76074L0.327148 1.6377C0.578875 1.14381 0.961662 0.730572 1.43164 0.442383L1.6377 0.327148C2.27941 0.000180662 3.11978 4.91912e-10 4.7998 0H11.2002L12.3125 0.00488281C13.2877 0.0202065 13.881 0.0819019 14.3623 0.327148C14.9265 0.614723 15.3853 1.07347 15.6729 1.6377C15.9998 2.27941 16 3.11978 16 4.7998V11.2002L15.9951 12.3125C15.9798 13.2877 15.9181 13.881 15.6729 14.3623L15.5576 14.5684C15.2694 15.0383 14.8562 15.4211 14.3623 15.6729L14.2393 15.7305C13.7793 15.9281 13.2066 15.9811 12.3125 15.9951L11.2002 16V14.5C12.0647 14.5 12.6229 14.4986 13.0479 14.4639C13.4546 14.4306 13.6063 14.3747 13.6807 14.3369C13.9629 14.1931 14.1931 13.9629 14.3369 13.6807C14.3747 13.6063 14.4306 13.4546 14.4639 13.0479C14.4986 12.6229 14.5 12.0647 14.5 11.2002Z" fill="white"/>
</svg>
