<svg width="16" height="16" viewBox="0 0 16 16" fill="none" xmlns="http://www.w3.org/2000/svg">
<path d="M8 2.16583e-07C8.51312 2.37231e-07 8.94064 -0.000342533 9.28906 0.0263675C9.64524 0.0536976 9.98061 0.112268 10.3008 0.263672C10.8759 0.535694 11.3393 0.999075 11.6113 1.57422C11.7627 1.8944 11.8213 2.22977 11.8486 2.58594C11.8753 2.93436 11.875 3.36188 11.875 3.875V5.5C11.875 5.91421 11.5392 6.25 11.125 6.25C10.7108 6.25 10.375 5.91421 10.375 5.5V3.875C10.375 3.33885 10.3748 2.97893 10.3535 2.70117C10.3328 2.43153 10.2954 2.30148 10.2549 2.21582C10.1312 1.95439 9.92061 1.74376 9.65918 1.62012C9.57352 1.57964 9.44347 1.54216 9.17383 1.52148C8.89607 1.5002 8.53615 1.5 8 1.5C7.46385 1.5 7.10393 1.5002 6.82617 1.52148C6.55652 1.54216 6.42648 1.57964 6.34082 1.62012C6.07939 1.74376 5.86876 1.95439 5.74512 2.21582C5.70464 2.30148 5.66715 2.43153 5.64648 2.70117C5.6252 2.97893 5.625 3.33885 5.625 3.875V5.25H4.125V3.875C4.125 3.36188 4.12466 2.93435 4.15137 2.58594C4.1787 2.22977 4.23727 1.89439 4.38867 1.57422C4.66069 0.999075 5.12407 0.535694 5.69922 0.263672C6.01939 0.112266 6.35477 0.0536979 6.71094 0.0263674C7.05935 -0.000342745 7.48688 1.94345e-07 8 2.16583e-07Z" fill="white"/>
<path d="M9.2002 14.5V16H6.7998V14.5H9.2002ZM12.5 11.2002V9.7998C12.5 8.93534 12.4986 8.37708 12.4639 7.95215C12.4306 7.54542 12.3747 7.39365 12.3369 7.31934C12.1931 7.03709 11.9629 6.8069 11.6807 6.66309C11.6063 6.6253 11.4546 6.56936 11.0479 6.53613C10.6229 6.50144 10.0647 6.5 9.2002 6.5H6.7998C5.93534 6.5 5.37708 6.50144 4.95215 6.53613C4.54542 6.56936 4.39365 6.6253 4.31934 6.66309C4.03709 6.8069 3.8069 7.03709 3.66309 7.31934C3.6253 7.39365 3.56936 7.54542 3.53613 7.95215C3.50144 8.37708 3.5 8.93534 3.5 9.7998V11.2002C3.5 12.0647 3.50144 12.6229 3.53613 13.0479C3.56936 13.4546 3.6253 13.6063 3.66309 13.6807C3.8069 13.9629 4.03709 14.1931 4.31934 14.3369C4.39365 14.3747 4.54542 14.4306 4.95215 14.4639C5.37708 14.4986 5.93534 14.5 6.7998 14.5V16C5.11978 16 4.27941 15.9998 3.6377 15.6729C3.14381 15.4211 2.73057 15.0383 2.44238 14.5684L2.32715 14.3623C2.0819 13.881 2.02021 13.2877 2.00488 12.3125L2 11.2002V9.7998C2 8.22468 2.00007 7.38795 2.26953 6.76074L2.32715 6.6377C2.57888 6.14381 2.96166 5.73057 3.43164 5.44238L3.6377 5.32715C4.27941 5.00018 5.11978 5 6.7998 5H9.2002L10.3125 5.00488C11.2877 5.02021 11.881 5.0819 12.3623 5.32715C12.9265 5.61472 13.3853 6.07347 13.6729 6.6377C13.9998 7.27941 14 8.11978 14 9.7998V11.2002L13.9951 12.3125C13.9798 13.2877 13.9181 13.881 13.6729 14.3623L13.5576 14.5684C13.2694 15.0383 12.8562 15.4211 12.3623 15.6729L12.2393 15.7305C11.7793 15.9281 11.2066 15.9811 10.3125 15.9951L9.2002 16V14.5C10.0647 14.5 10.6229 14.4986 11.0479 14.4639C11.4546 14.4306 11.6063 14.3747 11.6807 14.3369C11.9629 14.1931 12.1931 13.9629 12.3369 13.6807C12.3747 13.6063 12.4306 13.4546 12.4639 13.0479C12.4986 12.6229 12.5 12.0647 12.5 11.2002Z" fill="white"/>
</svg>
