<svg width="16" height="16" viewBox="0 0 16 16" fill="none" xmlns="http://www.w3.org/2000/svg">
<path d="M8.01121 2.83148e-07C8.21041 0.000218079 8.40192 0.0795425 8.54246 0.220703L13.354 5.05371C13.6462 5.34724 13.6456 5.82298 13.352 6.11523C13.0585 6.40731 12.5837 6.40578 12.2915 6.11231L8.75731 2.5625L8.73973 15.251C8.73913 15.6651 8.40279 16.0004 7.98875 16C7.57458 15.9994 7.23919 15.6632 7.23973 15.249L7.25731 2.5625L3.7075 6.11328C3.41461 6.40617 2.93985 6.40617 2.64696 6.11328C2.35423 5.82038 2.35412 5.34557 2.64696 5.05273L7.47996 0.219727C7.62078 0.0789134 7.81208 -0.000172692 8.01121 2.83148e-07Z" fill="#FF8800"/>
</svg>
