<svg width="16" height="16" viewBox="0 0 16 16" fill="none" xmlns="http://www.w3.org/2000/svg">
<g clip-path="url(#clip0_447_338)">
<path d="M14.7191 8.91994C15.012 8.62705 15.4867 8.62706 15.7796 8.91994C16.0725 9.21283 16.0725 9.68759 15.7796 9.98049L9.97981 15.7803C9.68692 16.0731 9.21214 16.0732 8.91927 15.7803C8.62641 15.4874 8.62644 15.0126 8.91927 14.7197L14.7191 8.91994ZM13.72 1.21974C14.0129 0.926854 14.4877 0.926852 14.7806 1.21974C15.0735 1.51264 15.0735 1.9874 14.7806 2.28029L2.2806 14.7803C1.9877 15.0732 1.51294 15.0732 1.22005 14.7803C0.927157 14.4874 0.927159 14.0126 1.22005 13.7197L13.72 1.21974ZM6.01985 0.219744C6.31271 -0.0731173 6.7875 -0.0730532 7.0804 0.219744C7.37329 0.512637 7.37329 0.987398 7.0804 1.28029L1.2806 7.0801C0.987703 7.37299 0.512942 7.37299 0.220049 7.0801C-0.072748 6.78719 -0.0728121 6.31241 0.220049 6.01955L6.01985 0.219744Z" fill="#67FF6C"/>
</g>
<defs>
<clipPath id="clip0_447_338">
<rect width="16" height="16" fill="white"/>
</clipPath>
</defs>
</svg>
