<svg width="16" height="16" viewBox="0 0 16 16" fill="none" xmlns="http://www.w3.org/2000/svg">
<path d="M3 11C3 8.23858 5.23858 6 8 6H12.25C12.6642 6 13 6.33579 13 6.75C13 7.16421 12.6642 7.5 12.25 7.5H8C6.067 7.5 4.5 9.067 4.5 11C4.5 12.933 6.067 14.5 8 14.5H12.25C12.6642 14.5 13 14.8358 13 15.25C13 15.6642 12.6642 16 12.25 16H8C5.23858 16 3 13.7614 3 11ZM4.25 3V1C4.25 0.585786 4.58579 0.25 5 0.25C5.41421 0.25 5.75 0.585786 5.75 1V3C5.75 3.41421 5.41421 3.75 5 3.75C4.58579 3.75 4.25 3.41421 4.25 3ZM7.25 3V1C7.25 0.585786 7.58579 0.25 8 0.25C8.41421 0.25 8.75 0.585786 8.75 1V3C8.75 3.41421 8.41421 3.75 8 3.75C7.58579 3.75 7.25 3.41421 7.25 3ZM10.25 3V1C10.25 0.585786 10.5858 0.25 11 0.25C11.4142 0.25 11.75 0.585786 11.75 1V3C11.75 3.41421 11.4142 3.75 11 3.75C10.5858 3.75 10.25 3.41421 10.25 3Z" fill="white"/>
</svg>
