<svg width="16" height="16" viewBox="0 0 16 16" fill="none" xmlns="http://www.w3.org/2000/svg">
<path d="M7.22166 6.11621C7.72704 5.95075 8.27292 5.95075 8.7783 6.11621C9.51537 6.35776 9.96057 7.06229 10.3154 7.80859C10.6905 8.59764 11.0838 9.71048 11.582 11.1172L12.957 15C13.095 15.3904 12.8903 15.8188 12.5 15.957C12.1096 16.0951 11.6812 15.8903 11.5429 15.5L10.3447 12.1172H5.65525L4.45701 15.5C4.31877 15.8903 3.89033 16.0951 3.49998 15.957C3.10965 15.8188 2.90492 15.3904 3.04295 15L4.41795 11.1172C4.91616 9.71048 5.30942 8.59764 5.68455 7.80859C6.03938 7.06229 6.48459 6.35776 7.22166 6.11621ZM8.3115 7.54199C8.10935 7.47581 7.89061 7.47581 7.68846 7.54199C7.60772 7.5687 7.39211 7.71048 7.03904 8.45312C6.78864 8.97985 6.52101 9.68749 6.18748 10.6172H9.81248C9.47895 9.68749 9.21131 8.97985 8.96092 8.45312C8.60785 7.71048 8.39224 7.5687 8.3115 7.54199ZM4.24998 3V1C4.24998 0.585786 4.58577 0.25 4.99998 0.25C5.41419 0.25 5.74998 0.585786 5.74998 1V3C5.74998 3.41421 5.41419 3.75 4.99998 3.75C4.58577 3.75 4.24998 3.41421 4.24998 3ZM7.24998 3V1C7.24998 0.585786 7.58576 0.25 7.99998 0.25C8.41419 0.25 8.74998 0.585786 8.74998 1V3C8.74998 3.41421 8.41419 3.75 7.99998 3.75C7.58576 3.75 7.24998 3.41421 7.24998 3ZM10.25 3V1C10.25 0.585786 10.5858 0.25 11 0.25C11.4142 0.25 11.75 0.585786 11.75 1V3C11.75 3.41421 11.4142 3.75 11 3.75C10.5858 3.75 10.25 3.41421 10.25 3Z" fill="white"/>
</svg>
