<svg width="16" height="16" viewBox="0 0 16 16" fill="none" xmlns="http://www.w3.org/2000/svg">
<path d="M3 8.4502C3 7.0971 4.0971 6 5.4502 6H8C10.7614 6 13 8.23858 13 11C13 13.7614 10.7614 16 8 16H5.4502C4.0971 16 3 14.9029 3 13.5498V8.4502ZM4.25 3V1C4.25 0.585786 4.58579 0.25 5 0.25C5.41421 0.25 5.75 0.585786 5.75 1V3C5.75 3.41421 5.41421 3.75 5 3.75C4.58579 3.75 4.25 3.41421 4.25 3ZM7.25 3V1C7.25 0.585786 7.58579 0.25 8 0.25C8.41421 0.25 8.75 0.585786 8.75 1V3C8.75 3.41421 8.41421 3.75 8 3.75C7.58579 3.75 7.25 3.41421 7.25 3ZM10.25 3V1C10.25 0.585786 10.5858 0.25 11 0.25C11.4142 0.25 11.75 0.585786 11.75 1V3C11.75 3.41421 11.4142 3.75 11 3.75C10.5858 3.75 10.25 3.41421 10.25 3ZM4.5 13.5498C4.5 14.0745 4.92553 14.5 5.4502 14.5H8C9.933 14.5 11.5 12.933 11.5 11C11.5 9.067 9.933 7.5 8 7.5H5.4502C4.92552 7.5 4.5 7.92552 4.5 8.4502V13.5498Z" fill="white"/>
</svg>
