<svg width="16" height="16" viewBox="0 0 16 16" fill="none" xmlns="http://www.w3.org/2000/svg">
<path d="M11.5 13.125C11.5 12.3656 10.8844 11.75 10.125 11.75H4.50001V13.25C4.50001 13.7424 4.50198 14.0364 4.53029 14.2471C4.54327 14.3436 4.55843 14.3923 4.56739 14.4141C4.56945 14.4191 4.57127 14.4229 4.57228 14.4248L4.57325 14.4268L4.57521 14.4277C4.57713 14.4287 4.58096 14.4306 4.58595 14.4326C4.60773 14.4416 4.65638 14.4567 4.75294 14.4697C4.96365 14.498 5.25757 14.5 5.75001 14.5H10.125C10.8844 14.5 11.5 13.8844 11.5 13.125ZM4.25001 3V1C4.25001 0.585786 4.5858 0.25 5.00001 0.25C5.41423 0.25 5.75001 0.585786 5.75001 1V3C5.75001 3.41421 5.41423 3.75 5.00001 3.75C4.5858 3.75 4.25001 3.41421 4.25001 3ZM7.25001 3V1C7.25001 0.585786 7.5858 0.25 8.00001 0.25C8.41423 0.25 8.75001 0.585786 8.75001 1V3C8.75001 3.41421 8.41423 3.75 8.00001 3.75C7.5858 3.75 7.25001 3.41421 7.25001 3ZM10.25 3V1C10.25 0.585786 10.5858 0.25 11 0.25C11.4142 0.25 11.75 0.585786 11.75 1V3C11.75 3.41421 11.4142 3.75 11 3.75C10.5858 3.75 10.25 3.41421 10.25 3ZM13 13.125C13 14.7128 11.7128 16 10.125 16H5.75001C5.29981 16 4.88665 16.0019 4.55275 15.957C4.19727 15.9092 3.82173 15.7963 3.51271 15.4873C3.20369 15.1783 3.09077 14.8027 3.04298 14.4473C2.99809 14.1134 3.00001 13.7002 3.00001 13.25V8.75C3.00001 8.2998 2.99809 7.88664 3.04298 7.55273C3.09077 7.19726 3.20369 6.82171 3.51271 6.5127C3.82173 6.20368 4.19727 6.09076 4.55275 6.04297C4.88665 5.99808 5.29981 6 5.75001 6H10.125C11.7128 6 13 7.28718 13 8.875C13 9.71816 12.6348 10.4741 12.0567 11C12.6348 11.5259 13 12.2818 13 13.125ZM4.50001 10.25H10.125C10.8844 10.25 11.5 9.63439 11.5 8.875C11.5 8.11561 10.8844 7.5 10.125 7.5H5.75001C5.25757 7.5 4.96365 7.50197 4.75294 7.53027C4.65638 7.54326 4.60773 7.55842 4.58595 7.56738C4.58096 7.56944 4.57713 7.57126 4.57521 7.57227L4.57325 7.57324C4.57303 7.5736 4.57277 7.57427 4.57228 7.5752C4.57127 7.57712 4.56945 7.58095 4.56739 7.58594C4.55843 7.60772 4.54327 7.65637 4.53029 7.75293C4.50198 7.96364 4.50001 8.25756 4.50001 8.75V10.25Z" fill="white"/>
</svg>
