<svg width="16" height="16" viewBox="0 0 16 16" fill="none" xmlns="http://www.w3.org/2000/svg">
<g clip-path="url(#clip0_447_349)">
<path fill-rule="evenodd" clip-rule="evenodd" d="M9.75 0C10.8546 0 11.75 0.895431 11.75 2V3.25H14.5C14.9142 3.25 15.25 3.58579 15.25 4C15.25 4.41421 14.9142 4.75 14.5 4.75H13.75V11.25C13.75 11.9377 13.751 12.4986 13.7139 12.9531C13.676 13.4164 13.5946 13.8349 13.3955 14.2256C13.0839 14.837 12.587 15.3339 11.9756 15.6455C11.5849 15.8446 11.1664 15.926 10.7031 15.9639C10.2486 16.001 9.68769 16 9 16H7C6.31231 16 5.75138 16.001 5.29688 15.9639C4.83362 15.926 4.41515 15.8446 4.02441 15.6455C3.41304 15.3339 2.91605 14.837 2.60449 14.2256C2.4054 13.8349 2.32398 13.4164 2.28613 12.9531C2.249 12.4986 2.25 11.9377 2.25 11.25V4.75H1.5C1.08579 4.75 0.75 4.41421 0.75 4C0.75 3.58579 1.08579 3.25 1.5 3.25H4.25V2C4.25 0.895431 5.14543 0 6.25 0H9.75ZM3.75 4.75V11.25C3.75 11.9624 3.75026 12.4518 3.78125 12.8311C3.81152 13.2015 3.86705 13.4009 3.94043 13.5449C4.10818 13.874 4.37597 14.1418 4.70508 14.3096C4.8491 14.383 5.04851 14.4385 5.41895 14.4688C5.7982 14.4997 6.28756 14.5 7 14.5H9C9.71244 14.5 10.2018 14.4997 10.5811 14.4688C10.9515 14.4385 11.1509 14.383 11.2949 14.3096C11.624 14.1418 11.8918 13.874 12.0596 13.5449C12.133 13.4009 12.1885 13.2015 12.2188 12.8311C12.2497 12.4518 12.25 11.9624 12.25 11.25V4.75H3.75ZM6.25 1.5C5.97386 1.5 5.75 1.72386 5.75 2V3.25H10.25V2C10.25 1.72386 10.0261 1.5 9.75 1.5H6.25Z" fill="#FF3831"/>
</g>
<defs>
<clipPath id="clip0_447_349">
<rect width="16" height="16" fill="white"/>
</clipPath>
</defs>
</svg>
