<svg width="16" height="16" viewBox="0 0 16 16" fill="none" xmlns="http://www.w3.org/2000/svg">
<path d="M4.25 14.4996V3.25837C4.25 3.2093 4.24908 3.16281 4.24903 3.11872C4.22125 3.15293 4.192 3.18902 4.16114 3.22712L1.58301 6.41072C1.32233 6.7325 0.850177 6.78162 0.528323 6.52107C0.206487 6.26039 0.156388 5.78825 0.416994 5.46638L2.99512 2.28279C3.20426 2.02458 3.39222 1.79256 3.55274 1.62556C3.6861 1.48683 3.94251 1.23282 4.31055 1.17634C4.67265 1.12096 5.0381 1.22755 5.3125 1.46247L5.42481 1.57087L5.50879 1.67732C5.68458 1.9333 5.71717 2.22917 5.73145 2.39704C5.75106 2.62776 5.75 2.92625 5.75 3.25837V14.4996C5.75 14.9138 5.41422 15.2496 5 15.2496C4.58579 15.2496 4.25 14.9138 4.25 14.4996ZM10.25 14.4996V3.25837C10.25 2.92625 10.2489 2.62776 10.2686 2.39704C10.2849 2.20529 10.3247 1.84642 10.5752 1.57087C10.8218 1.29987 11.173 1.15178 11.5342 1.16169L11.6895 1.17634L11.8223 1.20564C12.1198 1.29399 12.3306 1.50416 12.4473 1.62556C12.6078 1.79256 12.7957 2.02458 13.0049 2.28279L15.583 5.46638C15.8436 5.78825 15.7935 6.26039 15.4717 6.52107C15.1498 6.78162 14.6777 6.7325 14.417 6.41072L11.8389 3.22712C11.8079 3.18884 11.7779 3.15307 11.75 3.11872V14.4996C11.75 14.9138 11.4142 15.2496 11 15.2496C10.5858 15.2496 10.25 14.9138 10.25 14.4996Z" fill="#FFE100"/>
</svg>
